<svg version="1.2" baseProfile="tiny-ps" xmlns="http://www.w3.org/2000/svg" viewBox="0 0 116 224" width="116" height="224">
	<title>jul_TEKOMA-svg</title>
	<style>
		tspan { white-space:pre }
		.shp0 { fill: #ffffff } 
	</style>
	<path id="Forme 1" class="shp0" d="M20 172L73 45C73 45 74.75 45.72 74 41C73.25 36.28 69 20 69 20C69 20 68.25 17.72 70 16C71.75 14.28 86 0 86 0L84 18C84 18 85.38 21.86 89 22C92.63 22.14 98 22 98 22C98 22 101.38 21.36 102 18C102.63 14.64 105 0 105 0L112 14L114 20L115 26C115 26 114.5 26.49 113 29C111.5 31.51 41 178 41 178C41 178 41 177.86 41 179C41 180.14 40 182.24 42 188C44 193.76 46 201 46 201L46 207L29 224L31 207C31 207 31 202.86 26 203C21 203.14 17 203 17 203C17 203 13.5 203.24 13 207C12.5 210.76 10 223 10 223C10 223 -2.25 207.61 0 200C2.25 192.39 2 194 2 194L20 172Z" />
</svg>